<svg xmlns="http://www.w3.org/2000/svg" xmlns:xlink="http://www.w3.org/1999/xlink" width="1280" zoomAndPan="magnify" viewBox="0 0 960 299.999988" height="400" preserveAspectRatio="xMidYMid meet" version="1.0"><defs><g/><clipPath id="id1"><path d="M 381 110.480469 L 457 110.480469 L 457 187 L 381 187 Z M 381 110.480469 " clip-rule="nonzero"/></clipPath><clipPath id="id2"><path d="M 744 230.679688 L 760.832031 230.679688 L 760.832031 247.460938 L 744 247.460938 Z M 744 230.679688 " clip-rule="nonzero"/></clipPath></defs><g fill="#000000" fill-opacity="1"><g transform="translate(431.996912, 190.722745)"><g><path d="M 11.671875 0 L 11.671875 -115.203125 L 38.296875 -115.203125 L 38.296875 0 Z M 11.671875 0 "/></g></g></g><g fill="#000000" fill-opacity="1"><g transform="translate(479.162584, 190.722745)"><g><path d="M 4.203125 -89.046875 L 4.203125 -109.28125 L 90.453125 -109.28125 L 90.453125 -89.046875 L 60.5625 -89.046875 L 60.5625 0 L 33.9375 0 L 33.9375 -89.046875 Z M 4.203125 -89.046875 "/></g></g></g><g fill="#000000" fill-opacity="1"><g transform="translate(571.003583, 190.722745)"><g><path d="M 38.296875 -86.859375 L 38.296875 -70.671875 C 44.523438 -82.085938 52.828125 -87.796875 63.203125 -87.796875 L 63.203125 -60.71875 L 56.671875 -60.71875 C 50.546875 -60.71875 45.953125 -59.265625 42.890625 -56.359375 C 39.828125 -53.453125 38.296875 -48.363281 38.296875 -41.09375 L 38.296875 0 L 11.671875 0 L 11.671875 -86.859375 Z M 38.296875 -86.859375 "/></g></g></g><g fill="#000000" fill-opacity="1"><g transform="translate(634.202557, 190.722745)"><g><path d="M 64.59375 -27.546875 C 68.4375 -31.285156 70.359375 -36.578125 70.359375 -43.421875 C 70.359375 -50.273438 68.4375 -55.546875 64.59375 -59.234375 C 60.757812 -62.921875 56.351562 -64.765625 51.375 -64.765625 C 46.394531 -64.765625 41.984375 -62.894531 38.140625 -59.15625 C 34.296875 -55.414062 32.375 -50.117188 32.375 -43.265625 C 32.375 -36.421875 34.296875 -31.15625 38.140625 -27.46875 C 41.984375 -23.789062 46.394531 -21.953125 51.375 -21.953125 C 56.351562 -21.953125 60.757812 -23.816406 64.59375 -27.546875 Z M 16.8125 -11.359375 C 9.132812 -19.660156 5.296875 -30.296875 5.296875 -43.265625 C 5.296875 -56.242188 9.132812 -66.910156 16.8125 -75.265625 C 24.488281 -83.617188 33.851562 -87.796875 44.90625 -87.796875 C 55.957031 -87.796875 64.441406 -83.695312 70.359375 -75.5 L 70.359375 -86.859375 L 96.984375 -86.859375 L 96.984375 0 L 70.359375 0 L 70.359375 -12.609375 C 63.929688 -3.472656 55.316406 1.09375 44.515625 1.09375 C 33.722656 1.09375 24.488281 -3.054688 16.8125 -11.359375 Z M 16.8125 -11.359375 "/></g></g></g><g fill="#000000" fill-opacity="1"><g transform="translate(740.053234, 190.722745)"><g><path d="M 17.359375 -11.046875 C 9.316406 -19.140625 5.296875 -29.929688 5.296875 -43.421875 C 5.296875 -56.921875 9.316406 -67.691406 17.359375 -75.734375 C 25.398438 -83.773438 35.800781 -87.796875 48.5625 -87.796875 C 59.15625 -87.796875 68.132812 -85.175781 75.5 -79.9375 C 82.863281 -74.695312 87.742188 -67.195312 90.140625 -57.4375 L 61.328125 -57.4375 C 58.835938 -62.625 54.765625 -65.21875 49.109375 -65.21875 C 43.453125 -65.21875 39.25 -63.21875 36.5 -59.21875 C 33.75 -55.226562 32.375 -49.960938 32.375 -43.421875 C 32.375 -36.890625 33.75 -31.625 36.5 -27.625 C 39.25 -23.632812 43.269531 -21.640625 48.5625 -21.640625 C 51.882812 -21.640625 54.476562 -22.207031 56.34375 -23.34375 C 58.21875 -24.488281 59.878906 -26.515625 61.328125 -29.421875 L 90.140625 -29.421875 C 87.742188 -20.078125 82.8125 -12.65625 75.34375 -7.15625 C 67.875 -1.65625 58.945312 1.09375 48.5625 1.09375 C 35.800781 1.09375 25.398438 -2.953125 17.359375 -11.046875 Z M 17.359375 -11.046875 "/></g></g></g><g fill="#000000" fill-opacity="1"><g transform="translate(830.648922, 190.722745)"><g><path d="M 38.296875 0 L 11.671875 0 L 11.671875 -115.203125 L 38.296875 -115.203125 L 38.296875 -50.59375 L 65.21875 -86.859375 L 101.03125 -86.859375 L 63.828125 -42.5 L 101.03125 0 L 65.6875 0 L 38.296875 -34.71875 Z M 38.296875 0 "/></g></g></g><g fill="#000000" fill-opacity="1"><g transform="translate(367.299537, 192.585007)"><g><path d="M 63.828125 -27.234375 C 67.359375 -30.972656 69.125 -36.367188 69.125 -43.421875 C 69.125 -50.484375 67.304688 -55.859375 63.671875 -59.546875 C 60.035156 -63.234375 55.726562 -65.078125 50.75 -65.078125 C 45.769531 -65.078125 41.488281 -63.234375 37.90625 -59.546875 C 34.320312 -55.859375 32.53125 -50.484375 32.53125 -43.421875 C 32.53125 -36.367188 34.375 -30.972656 38.0625 -27.234375 C 41.75 -23.503906 46.082031 -21.640625 51.0625 -21.640625 C 56.039062 -21.640625 60.296875 -23.503906 63.828125 -27.234375 Z M 18.59375 -11.203125 C 9.832031 -19.398438 5.453125 -30.191406 5.453125 -43.578125 C 5.453125 -56.972656 9.804688 -67.691406 18.515625 -75.734375 C 27.234375 -83.773438 38.023438 -87.796875 50.890625 -87.796875 C 63.765625 -87.796875 74.535156 -83.773438 83.203125 -75.734375 C 91.867188 -67.691406 96.203125 -56.972656 96.203125 -43.578125 C 96.203125 -30.191406 91.894531 -19.398438 83.28125 -11.203125 C 74.664062 -3.003906 63.921875 1.09375 51.046875 1.09375 C 38.179688 1.09375 27.363281 -3.003906 18.59375 -11.203125 Z M 18.59375 -11.203125 "/></g></g></g><g fill="#000000" fill-opacity="1"><g transform="translate(20.904075, 190.722745)"><g><path d="M 135.4375 -109.28125 L 135.4375 0 L 108.8125 0 L 108.8125 -61.640625 L 83.4375 0 L 63.671875 0 L 38.296875 -61.640625 L 38.296875 0 L 11.671875 0 L 11.671875 -109.28125 L 42.1875 -109.28125 L 73.625 -33.9375 L 104.921875 -109.28125 Z M 135.4375 -109.28125 "/></g></g></g><g fill="#000000" fill-opacity="1"><g transform="translate(165.203539, 190.722745)"><g><path d="M 63.828125 -27.234375 C 67.359375 -30.972656 69.125 -36.367188 69.125 -43.421875 C 69.125 -50.484375 67.304688 -55.859375 63.671875 -59.546875 C 60.035156 -63.234375 55.726562 -65.078125 50.75 -65.078125 C 45.769531 -65.078125 41.488281 -63.234375 37.90625 -59.546875 C 34.320312 -55.859375 32.53125 -50.484375 32.53125 -43.421875 C 32.53125 -36.367188 34.375 -30.972656 38.0625 -27.234375 C 41.75 -23.503906 46.082031 -21.640625 51.0625 -21.640625 C 56.039062 -21.640625 60.296875 -23.503906 63.828125 -27.234375 Z M 18.59375 -11.203125 C 9.832031 -19.398438 5.453125 -30.191406 5.453125 -43.578125 C 5.453125 -56.972656 9.804688 -67.691406 18.515625 -75.734375 C 27.234375 -83.773438 38.023438 -87.796875 50.890625 -87.796875 C 63.765625 -87.796875 74.535156 -83.773438 83.203125 -75.734375 C 91.867188 -67.691406 96.203125 -56.972656 96.203125 -43.578125 C 96.203125 -30.191406 91.894531 -19.398438 83.28125 -11.203125 C 74.664062 -3.003906 63.921875 1.09375 51.046875 1.09375 C 38.179688 1.09375 27.363281 -3.003906 18.59375 -11.203125 Z M 18.59375 -11.203125 "/></g></g></g><g fill="#000000" fill-opacity="1"><g transform="translate(264.049372, 190.722745)"><g><path d="M 63.828125 -27.234375 C 67.359375 -30.972656 69.125 -36.367188 69.125 -43.421875 C 69.125 -50.484375 67.304688 -55.859375 63.671875 -59.546875 C 60.035156 -63.234375 55.726562 -65.078125 50.75 -65.078125 C 45.769531 -65.078125 41.488281 -63.234375 37.90625 -59.546875 C 34.320312 -55.859375 32.53125 -50.484375 32.53125 -43.421875 C 32.53125 -36.367188 34.375 -30.972656 38.0625 -27.234375 C 41.75 -23.503906 46.082031 -21.640625 51.0625 -21.640625 C 56.039062 -21.640625 60.296875 -23.503906 63.828125 -27.234375 Z M 18.59375 -11.203125 C 9.832031 -19.398438 5.453125 -30.191406 5.453125 -43.578125 C 5.453125 -56.972656 9.804688 -67.691406 18.515625 -75.734375 C 27.234375 -83.773438 38.023438 -87.796875 50.890625 -87.796875 C 63.765625 -87.796875 74.535156 -83.773438 83.203125 -75.734375 C 91.867188 -67.691406 96.203125 -56.972656 96.203125 -43.578125 C 96.203125 -30.191406 91.894531 -19.398438 83.28125 -11.203125 C 74.664062 -3.003906 63.921875 1.09375 51.046875 1.09375 C 38.179688 1.09375 27.363281 -3.003906 18.59375 -11.203125 Z M 18.59375 -11.203125 "/></g></g></g><path fill="#30bf40" d="M 252.003906 147.484375 C 252.003906 167.566406 235.722656 183.847656 215.644531 183.847656 C 195.570312 183.847656 179.289062 167.566406 179.289062 147.484375 C 179.289062 127.40625 195.570312 111.121094 215.644531 111.121094 C 235.722656 111.121094 252.003906 127.40625 252.003906 147.484375 " fill-opacity="1" fill-rule="nonzero"/><path fill="#0f2c33" d="M 206.550781 137.46875 C 206.550781 140.457031 204.128906 142.878906 201.144531 142.878906 C 198.15625 142.878906 195.734375 140.457031 195.734375 137.46875 C 195.734375 134.480469 198.15625 132.058594 201.144531 132.058594 C 204.128906 132.058594 206.550781 134.480469 206.550781 137.46875 " fill-opacity="1" fill-rule="nonzero"/><path fill="#0f2c33" d="M 224.742188 137.46875 C 224.742188 140.457031 227.164062 142.878906 230.148438 142.878906 C 233.136719 142.878906 235.558594 140.457031 235.558594 137.46875 C 235.558594 134.480469 233.136719 132.058594 230.148438 132.058594 C 227.164062 132.058594 224.742188 134.480469 224.742188 137.46875 " fill-opacity="1" fill-rule="nonzero"/><path fill="#0f2c33" d="M 233.996094 159.777344 C 232.660156 163.398438 229.902344 166.5 226.261719 168.625 C 226.25 168.640625 226.226562 168.648438 226.207031 168.660156 C 225.980469 168.792969 225.757812 168.921875 225.523438 169.046875 C 223.757812 169.988281 221.808594 170.707031 219.730469 171.164062 C 218.253906 171.484375 216.707031 171.679688 215.117188 171.714844 C 214.894531 171.71875 214.671875 171.71875 214.445312 171.71875 C 214.238281 171.71875 214.027344 171.71875 213.820312 171.710938 C 213.117188 171.691406 212.421875 171.640625 211.738281 171.5625 C 211.582031 171.546875 211.429688 171.527344 211.277344 171.507812 C 211.179688 171.496094 211.078125 171.480469 210.976562 171.460938 C 210.828125 171.445312 210.683594 171.421875 210.539062 171.398438 C 210.339844 171.367188 210.144531 171.328125 209.945312 171.292969 C 209.554688 171.214844 209.171875 171.136719 208.789062 171.039062 C 208.40625 170.949219 208.027344 170.847656 207.652344 170.730469 C 207.277344 170.621094 206.910156 170.5 206.550781 170.375 C 206.1875 170.246094 205.828125 170.105469 205.480469 169.960938 C 205.261719 169.871094 205.039062 169.78125 204.828125 169.679688 C 204.394531 169.484375 203.972656 169.273438 203.566406 169.058594 C 203.363281 168.949219 203.160156 168.839844 202.957031 168.722656 L 202.953125 168.722656 C 202.933594 168.710938 202.921875 168.703125 202.902344 168.691406 C 199.214844 166.558594 196.414062 163.433594 195.058594 159.777344 C 194.265625 157.628906 195.828125 155.460938 198.289062 154.917969 L 198.300781 154.917969 C 198.671875 154.832031 199.066406 154.789062 199.480469 154.789062 L 229.578125 154.789062 C 229.988281 154.789062 230.386719 154.832031 230.761719 154.917969 C 230.765625 154.917969 230.765625 154.917969 230.769531 154.917969 C 233.226562 155.457031 234.789062 157.632812 233.996094 159.777344 " fill-opacity="1" fill-rule="nonzero"/><path fill="#d9392e" d="M 226.207031 168.660156 C 225.980469 168.792969 225.757812 168.921875 225.523438 169.046875 C 223.757812 169.988281 221.808594 170.707031 219.730469 171.164062 C 218.253906 171.484375 216.707031 171.679688 215.117188 171.714844 C 214.894531 171.71875 214.671875 171.71875 214.445312 171.71875 C 214.238281 171.71875 214.027344 171.71875 213.820312 171.710938 C 213.117188 171.691406 212.421875 171.640625 211.738281 171.5625 C 211.582031 171.546875 211.429688 171.527344 211.277344 171.507812 C 211.179688 171.496094 211.078125 171.480469 210.976562 171.460938 C 210.828125 171.445312 210.683594 171.421875 210.539062 171.398438 C 210.339844 171.367188 210.144531 171.328125 209.945312 171.292969 C 209.554688 171.214844 209.171875 171.136719 208.789062 171.039062 C 208.40625 170.949219 208.027344 170.847656 207.652344 170.730469 C 207.277344 170.621094 206.910156 170.5 206.550781 170.375 C 206.1875 170.246094 205.828125 170.105469 205.480469 169.960938 C 205.261719 169.871094 205.039062 169.78125 204.828125 169.679688 C 204.394531 169.484375 203.972656 169.273438 203.566406 169.058594 C 203.363281 168.949219 203.160156 168.839844 202.957031 168.722656 L 202.953125 168.722656 C 202.933594 168.710938 202.921875 168.703125 202.902344 168.691406 C 204 167.484375 206.253906 165.796875 210.582031 165.089844 C 212.078125 164.84375 213.578125 165.023438 214.925781 165.566406 C 214.925781 165.566406 214.925781 165.5625 214.925781 165.566406 C 214.945312 165.558594 214.964844 165.550781 214.984375 165.546875 L 215.351562 165.46875 L 215.355469 165.46875 C 215.832031 165.382812 216.367188 165.335938 216.960938 165.335938 C 221.28125 165.335938 224.300781 167.003906 226.207031 168.660156 " fill-opacity="1" fill-rule="nonzero"/><path fill="#8c251e" d="M 214.925781 165.5625 C 214.925781 165.5625 216.636719 166.511719 217.214844 166.964844 C 217.214844 166.964844 216.386719 166.054688 215.351562 165.46875 L 214.925781 165.5625 " fill-opacity="1" fill-rule="nonzero"/><path fill="#ffffff" d="M 230.761719 154.917969 C 230.382812 154.832031 229.988281 154.789062 229.578125 154.789062 L 199.480469 154.789062 C 199.0625 154.789062 198.671875 154.832031 198.292969 154.917969 L 198.289062 154.917969 L 198.816406 156.046875 C 199.554688 157.625 201.132812 158.636719 202.871094 158.636719 L 226.179688 158.636719 C 227.917969 158.636719 229.496094 157.625 230.230469 156.046875 L 230.769531 154.917969 C 230.765625 154.917969 230.765625 154.917969 230.761719 154.917969 " fill-opacity="1" fill-rule="nonzero"/><path fill="#f2cc1d" d="M 351.8125 147 C 351.8125 167.351562 335.273438 183.847656 314.871094 183.847656 C 294.464844 183.847656 277.925781 167.351562 277.925781 147 C 277.925781 126.648438 294.464844 110.152344 314.871094 110.152344 C 335.273438 110.152344 351.8125 126.648438 351.8125 147 " fill-opacity="1" fill-rule="nonzero"/><path fill="#0f2c33" d="M 305.628906 136.851562 C 305.628906 139.878906 303.164062 142.332031 300.132812 142.332031 C 297.101562 142.332031 294.640625 139.878906 294.640625 136.851562 C 294.640625 133.824219 297.101562 131.375 300.132812 131.375 C 303.164062 131.375 305.628906 133.824219 305.628906 136.851562 " fill-opacity="1" fill-rule="nonzero"/><path fill="#0f2c33" d="M 324.113281 136.851562 C 324.113281 139.878906 326.574219 142.332031 329.609375 142.332031 C 332.644531 142.332031 335.101562 139.878906 335.101562 136.851562 C 335.101562 133.824219 332.644531 131.375 329.609375 131.375 C 326.574219 131.375 324.113281 133.824219 324.113281 136.851562 " fill-opacity="1" fill-rule="nonzero"/><path stroke-linecap="round" transform="matrix(0.116477, 0, 0, -0.116176, 47.881952, 227.211368)" fill="none" stroke-linejoin="round" d="M 2174.53311 580.881949 L 2409.894331 580.881949 " stroke="#0f2c33" stroke-width="77.017998" stroke-opacity="1" stroke-miterlimit="10"/><g clip-path="url(#id1)"><path fill="#ff9900" d="M 456.425781 148.59375 C 456.425781 169.371094 439.632812 186.214844 418.914062 186.214844 C 398.203125 186.214844 381.40625 169.371094 381.40625 148.59375 C 381.40625 127.816406 398.203125 110.972656 418.914062 110.972656 C 439.632812 110.972656 456.425781 127.816406 456.425781 148.59375 " fill-opacity="1" fill-rule="nonzero"/></g><path fill="#0f2c33" d="M 409.53125 138.230469 C 409.53125 141.320312 407.035156 143.824219 403.953125 143.824219 C 400.871094 143.824219 398.375 141.320312 398.375 138.230469 C 398.375 135.140625 400.871094 132.632812 403.953125 132.632812 C 407.035156 132.632812 409.53125 135.140625 409.53125 138.230469 " fill-opacity="1" fill-rule="nonzero"/><path fill="#0f2c33" d="M 428.300781 138.230469 C 428.300781 141.320312 430.796875 143.824219 433.878906 143.824219 C 436.960938 143.824219 439.457031 141.320312 439.457031 138.230469 C 439.457031 135.140625 436.960938 132.632812 433.878906 132.632812 C 430.796875 132.632812 428.300781 135.140625 428.300781 138.230469 " fill-opacity="1" fill-rule="nonzero"/><path fill="#0f2c33" d="M 405.933594 166.863281 C 406.664062 167.125 407.464844 166.742188 407.726562 166.007812 C 407.75 165.941406 410.300781 159.050781 418.914062 159.050781 C 427.449219 159.050781 429.996094 165.714844 430.109375 166.011719 C 430.367188 166.742188 431.171875 167.121094 431.902344 166.863281 C 432.628906 166.601562 433.007812 165.792969 432.75 165.0625 C 432.71875 164.972656 429.488281 156.238281 418.914062 156.238281 C 408.347656 156.238281 405.117188 164.972656 405.078125 165.0625 C 404.820312 165.792969 405.203125 166.601562 405.933594 166.863281 " fill-opacity="1" fill-rule="nonzero"/><path fill="#ffd200" d="M 518.015625 243.195312 L 412.089844 243.195312 L 412.089844 235.0625 L 518.015625 235.0625 L 518.015625 243.195312 " fill-opacity="1" fill-rule="nonzero"/><path fill="#ff9900" d="M 412.089844 243.195312 L 306.164062 243.195312 L 306.164062 235.0625 L 412.089844 235.0625 L 412.089844 243.195312 " fill-opacity="1" fill-rule="nonzero"/><path fill="#30bf40" d="M 725.855469 243.195312 L 623.949219 243.195312 L 623.949219 235.0625 L 725.855469 235.0625 C 728.078125 235.0625 729.875 236.863281 729.875 239.074219 L 729.875 239.183594 C 729.875 241.394531 728.078125 243.195312 725.855469 243.195312 " fill-opacity="1" fill-rule="nonzero"/><path fill="#66cc33" d="M 623.949219 243.195312 L 518.015625 243.195312 L 518.015625 235.0625 L 623.949219 235.0625 L 623.949219 243.195312 " fill-opacity="1" fill-rule="nonzero"/><path fill="#ff1800" d="M 306.164062 243.195312 L 204.25 243.195312 C 202.035156 243.195312 200.230469 241.394531 200.230469 239.183594 L 200.230469 239.074219 C 200.230469 236.863281 202.035156 235.0625 204.25 235.0625 L 306.164062 235.0625 L 306.164062 243.195312 " fill-opacity="1" fill-rule="nonzero"/><path fill="#ff1800" d="M 183.277344 241.816406 L 171.96875 241.816406 C 170.480469 241.816406 169.277344 240.613281 169.277344 239.125 C 169.277344 237.644531 170.480469 236.441406 171.96875 236.441406 L 183.277344 236.441406 C 184.761719 236.441406 185.96875 237.644531 185.96875 239.125 C 185.96875 240.613281 184.761719 241.816406 183.277344 241.816406 " fill-opacity="1" fill-rule="nonzero"/><g clip-path="url(#id2)"><path fill="#30bf40" d="M 758.144531 236.441406 L 755.175781 236.441406 L 755.175781 233.480469 C 755.175781 232 753.972656 230.796875 752.484375 230.796875 C 751 230.796875 749.792969 232 749.792969 233.480469 L 749.792969 236.441406 L 746.832031 236.441406 C 745.347656 236.441406 744.136719 237.644531 744.136719 239.125 C 744.136719 240.613281 745.347656 241.816406 746.832031 241.816406 L 749.792969 241.816406 L 749.792969 244.773438 C 749.792969 246.257812 751 247.460938 752.484375 247.460938 C 753.972656 247.460938 755.175781 246.257812 755.175781 244.773438 L 755.175781 241.816406 L 758.144531 241.816406 C 759.625 241.816406 760.832031 240.613281 760.832031 239.125 C 760.832031 237.644531 759.625 236.441406 758.144531 236.441406 " fill-opacity="1" fill-rule="nonzero"/></g></svg>